<?xml version="1.0" encoding="UTF-8"?>
<svg version="1.1" xmlns="http://www.w3.org/2000/svg" width="512" height="512">
<path d="M0 0 C1.94575337 -0.00174678 3.89150581 -0.00525363 5.83725327 -0.01035666 C11.15534191 -0.01925954 16.47310556 -0.00335766 21.79115283 0.01675558 C27.53671714 0.03408398 33.28226419 0.02818007 39.02784729 0.02514648 C48.97294748 0.02305253 58.91794241 0.03556651 68.86301613 0.05809784 C83.24177726 0.09065277 97.62048768 0.10102844 111.99928167 0.10604981 C135.3298061 0.11479697 158.66027447 0.1413624 181.99076843 0.17926025 C204.64961965 0.21602449 227.30845585 0.24434594 249.96733093 0.2612915 C250.66633332 0.26181761 251.3653357 0.26234371 252.08551997 0.26288576 C259.10547937 0.26816005 266.12543888 0.27326327 273.14539849 0.2782412 C287.44461989 0.28838482 301.74384032 0.29966982 316.0430603 0.31164551 C318.01277334 0.31329387 318.01277334 0.31329387 320.02227857 0.31497553 C363.22542025 0.35163081 406.42853276 0.4145639 449.63163757 0.48101807 C449.70012724 45.11998044 449.76374131 89.75894855 449.80101013 134.39794922 C449.80183847 135.38932916 449.80183847 135.38932916 449.80268355 136.40073698 C449.81465584 150.76512438 449.82573647 165.12951235 449.83589889 179.49390115 C449.84088813 186.53843504 449.84607436 193.58296877 449.85136414 200.62750244 C449.85188717 201.3285094 449.85241021 202.02951636 449.85294909 202.75176595 C449.86998729 225.46376036 449.90002715 248.1757149 449.93682646 270.88768517 C449.9756521 294.89394437 449.99962666 318.90017748 450.00799155 342.9064672 C450.01348028 357.28465393 450.03081681 371.66272618 450.06330344 386.04087767 C450.08444542 395.90019897 450.0908383 405.75946108 450.08564308 415.61880341 C450.08308085 421.30731706 450.08701181 426.99563065 450.10845947 432.68410873 C450.12796513 437.89563376 450.12888134 443.10682471 450.11523315 448.31836531 C450.11354702 450.20013433 450.11858697 452.08192445 450.1311703 453.96365216 C450.24160509 471.50317117 446.76906604 485.03530661 434.44413757 498.23101807 C422.92482744 509.14404872 410.26011523 512.99870788 394.76249695 512.90313721 C380.72619311 512.47876442 367.36051271 506.76188612 357.63163757 496.48101807 C348.10919417 484.8196241 342.09317593 470.74353435 343.63163757 455.48101807 C345.62864853 442.17320557 351.03053974 431.94571145 361.63163757 423.48101807 C373.84708698 415.96505644 383.72667253 415.24926865 397.63163757 415.48101807 C397.63163757 425.71101807 397.63163757 435.94101807 397.63163757 446.48101807 C393.67163757 446.81101807 389.71163757 447.14101807 385.63163757 447.48101807 C381.45473916 449.01987538 378.73426555 450.49709137 376.63163757 454.48101807 C374.98647469 460.47411144 375.9770313 465.0173557 378.63163757 470.48101807 C381.97517672 475.71350532 385.54525948 478.78481433 391.63163757 480.48101807 C398.76262089 481.33502804 404.75051521 480.82502891 410.63163757 476.48101807 C414.74882556 472.6474119 417.35683385 468.37363098 417.8933506 462.72619915 C417.89888136 461.720523 417.90441212 460.71484686 417.91011047 459.67869568 C417.92127396 458.51908325 417.93243744 457.35947083 417.94393921 456.16471863 C417.94717949 454.27010643 417.94717949 454.27010643 417.95048523 452.33721924 C417.95978858 450.98673912 417.96995787 449.63626474 417.98092651 448.28579712 C418.00819479 444.62713111 418.02336646 440.96850354 418.03635454 437.30976272 C418.051999 433.48336495 418.07878502 429.65704551 418.10438538 425.83070374 C418.1511499 418.58833443 418.18790525 411.34595035 418.22105825 404.10350734 C418.25929608 395.85682515 418.30870189 387.61022167 418.35904241 379.36360586 C418.46232769 362.40279443 418.5501249 345.44195023 418.63163757 328.48101807 C408.73163757 328.48101807 398.83163757 328.48101807 388.63163757 328.48101807 C388.71413757 332.19351807 388.79663757 335.90601807 388.88163757 339.73101807 C388.95378626 348.77991793 388.71901427 356.26592872 384.63163757 364.48101807 C384.28101257 365.25832275 383.93038757 366.03562744 383.56913757 366.83648682 C377.43392099 379.21343417 366.2682401 389.01162761 353.31523132 393.69976807 C338.36432204 398.05228897 323.73912457 397.1617669 309.63163757 390.48101807 C296.12626103 382.52342136 286.3594481 370.3108579 282.19413757 355.10601807 C279.80647147 340.91266954 281.60230392 327.54683739 289.63163757 315.48101807 C296.72103304 305.82171674 305.90544546 299.98168289 317.63163757 297.48101807 C324.52692889 296.85645363 331.46846382 297.10113568 338.38163757 297.23101807 C340.2540142 297.25112325 342.12641179 297.26936688 343.99882507 297.28570557 C348.54362206 297.32936109 353.08739313 297.39816368 357.63163757 297.48101807 C357.59353436 283.70249642 357.5341046 269.92424552 357.44773483 256.14593697 C357.40829019 249.74752935 357.3760867 243.34925875 357.36064148 236.95074463 C357.34545541 230.77140324 357.31097429 224.59243859 357.26332855 218.41326523 C357.24853503 216.06030433 357.24059773 213.70728963 357.23975372 211.35428238 C357.23737631 208.04862944 357.21023257 204.74401114 357.17753601 201.4385376 C357.18256638 200.47396133 357.18759674 199.50938507 357.19277954 198.51557922 C357.06046257 189.82245496 354.62892395 181.57248452 348.60038757 175.08258057 C340.18037114 168.23296402 330.30059126 165.60144021 319.63163757 166.48101807 C309.99088667 167.97984363 303.35247005 171.18932769 296.81913757 178.41851807 C291.91591529 185.28302926 290.08442393 192.13601002 290.63163757 200.48101807 C292.25555065 208.90334693 295.84184378 214.79365114 301.94413757 220.73101807 C308.54756605 225.03092498 313.65843994 226.48436836 321.63163757 227.48101807 C321.63163757 237.71101807 321.63163757 247.94101807 321.63163757 258.48101807 C303.51836979 258.48101807 288.84304968 253.13661025 275.63163757 240.48101807 C262.81016153 226.20727127 258.0399263 210.31716016 258.63163757 191.48101807 C257.71124695 191.52742432 256.79085632 191.57383057 255.84257507 191.62164307 C238.95202391 192.10324738 225.13970937 187.19602798 212.25663757 176.04351807 C201.93088219 166.24559683 194.62853882 153.73959364 192.63163757 139.48101807 C192.63163757 136.18101807 192.63163757 132.88101807 192.63163757 129.48101807 C202.86163757 129.48101807 213.09163757 129.48101807 223.63163757 129.48101807 C224.62163757 133.77101807 225.61163757 138.06101807 226.63163757 142.48101807 C231.21640698 150.62132293 236.4915845 156.08124919 245.51445007 159.11383057 C255.72796985 160.88517901 264.28362674 159.83229095 272.78007507 154.00836182 C279.41340288 148.79293865 283.38012601 141.83707003 284.63163757 133.48101807 C285.38146286 122.478774 284.19921683 113.45670972 277.63163757 104.48101807 C277.30163757 103.49101807 276.97163757 102.50101807 276.63163757 101.48101807 C274.83660606 100.38211375 274.83660606 100.38211375 272.63163757 99.48101807 C271.44247742 98.86033447 271.44247742 98.86033447 270.22929382 98.22711182 C268.97439148 97.57935791 268.97439148 97.57935791 267.69413757 96.91851807 C266.86011414 96.484104 266.0260907 96.04968994 265.16679382 95.60211182 C259.47625782 93.08564982 253.72328801 93.312929 247.6089325 93.2756958 C246.10091064 93.26084641 246.10091064 93.26084641 244.56242371 93.24569702 C241.24567505 93.21415742 237.92891207 93.18935435 234.61210632 93.16461182 C232.30996329 93.14403579 230.00782399 93.12303914 227.70568848 93.10163879 C221.65096556 93.04648521 215.59620892 92.99704631 209.54142761 92.9487915 C203.36118067 92.89852747 197.1809826 92.84286699 191.0007782 92.78765869 C178.87777309 92.68015922 166.75472552 92.57869601 154.63163757 92.48101807 C154.65782166 93.65495117 154.68400574 94.82888428 154.71098328 96.03839111 C154.80246123 100.45339394 154.85923634 104.86831565 154.90629578 109.28399658 C154.93122019 111.18388013 154.96517281 113.08367003 155.00883484 114.98321533 C155.39589667 132.2734952 153.13088175 144.46907194 140.79179382 157.41070557 C131.18490415 166.56573745 118.74683911 170.00742292 105.73710632 169.72711182 C89.69338031 168.45572221 77.45686257 160.84058286 66.63163757 149.35992432 C55.88663918 136.73918267 54.5092092 121.31415572 55.63163757 105.48101807 C57.88078275 92.2300302 65.32960267 80.95940083 75.63163757 72.48101807 C87.89230221 63.96482669 99.83333346 61.2739867 114.56913757 61.41851807 C119.05507507 61.44945557 119.05507507 61.44945557 123.63163757 61.48101807 C123.63163757 51.58101807 123.63163757 41.68101807 123.63163757 31.48101807 C105.64629311 31.52133772 87.66125607 31.57813444 69.67608643 31.66492081 C61.32484118 31.7046925 52.97368991 31.73709446 44.62236023 31.75201416 C37.34144109 31.76504041 30.06072889 31.79202978 22.7799263 31.83563113 C18.92646033 31.85822425 15.07324938 31.87393005 11.2197113 31.87290192 C7.58833772 31.87215401 3.95752743 31.89015608 0.32629967 31.9221859 C-1.63305377 31.93468989 -3.59250189 31.92763098 -5.55187988 31.9198761 C-13.09730505 32.00879801 -19.11486294 32.51110309 -24.88088989 37.89270401 C-29.98951001 43.61377669 -30.88433751 49.0349368 -30.74726868 56.47320557 C-29.99956656 62.40857286 -26.78182074 66.37881883 -22.49336243 70.35601807 C-17.88430586 73.49017653 -13.79213524 74.77321903 -8.24336243 74.35601807 C-4.10333941 73.42117416 -2.26029251 72.54306168 0.63163757 69.48101807 C3.30245797 63.51205528 3.30245797 63.51205528 3.63163757 52.48101807 C13.86163757 52.48101807 24.09163757 52.48101807 34.63163757 52.48101807 C34.63163757 70.05148781 33.3109694 81.42160726 21.50663757 94.23101807 C12.24372621 103.04169975 0.43298624 107.07767759 -12.21211243 106.79351807 C-28.01417467 105.22895745 -40.46455231 99.15828184 -51.36836243 87.48101807 C-61.66054372 73.6329544 -63.53211173 59.23510714 -62.36836243 42.48101807 C-59.94508776 28.78805641 -51.0029663 16.93895218 -40.02851868 8.73101807 C-27.39681544 0.54190738 -14.53109925 -0.09754596 0 0 Z M154.63163757 31.48101807 C154.63163757 41.38101807 154.63163757 51.28101807 154.63163757 61.48101807 C157.73384705 61.49560059 160.83605652 61.51018311 164.03227234 61.52520752 C174.33006453 61.575748 184.6277086 61.64237654 194.92535496 61.71673298 C201.16329191 61.76128882 207.40116577 61.80057701 213.63920593 61.82745361 C219.6693925 61.85363471 225.69933432 61.8941402 231.72936821 61.94420433 C234.0195859 61.96077347 236.30984582 61.97234924 238.60011482 61.97863197 C269.85713178 62.07297917 269.85713178 62.07297917 282.88163757 69.04351807 C283.54220154 69.38793945 284.2027655 69.73236084 284.88334656 70.08721924 C300.32218238 78.51266432 309.23893001 92.2707291 314.34648132 108.79351807 C316.40544434 117.45018008 316.28617759 126.62633326 316.63163757 135.48101807 C317.45663757 135.44621338 318.28163757 135.41140869 319.13163757 135.37554932 C337.41577838 134.94701477 354.10118767 138.7444267 368.19413757 150.91851807 C380.55397862 163.0713266 387.7380106 177.18816542 387.94393921 194.64500427 C387.9460994 195.65057877 387.94825958 196.65615326 387.95048523 197.69219971 C387.96555367 199.31814056 387.96555367 199.31814056 387.98092651 200.97692871 C388.0116228 204.53167224 388.02875598 208.08634092 388.04570007 211.64117432 C388.06442261 214.11696511 388.08399683 216.59274959 388.10438538 219.06852722 C388.15559772 225.56377434 388.19528179 232.05904211 388.23252869 238.55438232 C388.27263671 245.19078795 388.32369799 251.82710308 388.37382507 258.46343994 C388.47045539 271.46924529 388.55388833 284.47508612 388.63163757 297.48101807 C398.53163757 297.48101807 408.43163757 297.48101807 418.63163757 297.48101807 C418.63163757 230.16101807 418.63163757 162.84101807 418.63163757 93.48101807 C413.68163757 95.46101807 408.73163757 97.44101807 403.63163757 99.48101807 C396.25136328 101.21110739 389.27132304 101.8009612 381.71366882 101.89508057 C380.73041122 101.91444672 379.74715363 101.93381287 378.73410034 101.95376587 C375.63753037 102.01286383 372.54092178 102.05966408 369.44413757 102.10601807 C367.3262841 102.14426226 365.2084451 102.18331758 363.09062195 102.22320557 C357.93774679 102.31850666 352.78479906 102.4027905 347.63163757 102.48101807 C347.70129859 96.48901619 347.7896275 90.49766097 347.89408875 84.50616455 C347.92701812 82.47466302 347.95514564 80.44307702 347.97807312 78.41143799 C348.17929366 61.04225227 349.82519875 47.81647123 356.63163757 31.48101807 C289.97163757 31.48101807 223.31163757 31.48101807 154.63163757 31.48101807 Z M395.63163757 35.48101807 C394.93425476 35.90511963 394.23687195 36.32922119 393.51835632 36.76617432 C386.0307469 41.82841873 381.05401916 49.36477726 379.00663757 58.16851807 C378.50325632 62.61505248 378.55213914 67.01143967 378.63163757 71.48101807 C390.34469142 72.08225847 399.42106981 69.97675844 408.63163757 62.48101807 C414.7956847 56.87983493 418.33534181 50.07360247 418.87382507 41.72711182 C418.88073863 38.301444 418.80907896 34.90169362 418.63163757 31.48101807 C410.05999462 31.04207191 403.05654135 30.87097143 395.63163757 35.48101807 Z M92.13945007 99.76617432 C87.08962234 105.50937218 85.95646396 110.99431336 86.25273132 118.58258057 C87.14678192 125.42160681 90.32538399 130.02418017 95.71757507 134.22320557 C101.18622089 137.81688711 106.01341386 139.09889704 112.52226257 138.05523682 C116.76156493 136.90120451 119.60844468 134.79776608 122.27738953 131.36309814 C124.05044644 127.5897185 124.00753506 124.19699451 123.92460632 120.11773682 C123.91823906 118.9297625 123.91823906 118.9297625 123.91174316 117.7177887 C123.89501921 115.2010118 123.85737983 112.68505082 123.81913757 110.16851807 C123.80408256 108.45694113 123.79039558 106.74535158 123.77812195 105.03375244 C123.74513642 100.84919573 123.69339855 96.665245 123.63163757 92.48101807 C120.90498983 92.45054222 118.17868631 92.42827582 115.45195007 92.41070557 C114.30013245 92.39656616 114.30013245 92.39656616 113.12504578 92.38214111 C104.75135117 92.34168848 98.34493357 93.86374932 92.13945007 99.76617432 Z M314.25663757 335.16851807 C311.69338004 340.39361997 311.67247917 344.55050185 313.47929382 350.07086182 C316.19674233 356.19663556 319.56021519 360.49693462 325.63163757 363.48101807 C333.08067366 366.0792597 339.50794361 365.90914383 346.63163757 362.48101807 C351.45767325 359.57800044 354.86161548 355.76350859 356.98710632 350.53570557 C358.50478874 343.34281072 357.89924085 335.78807422 357.63163757 328.48101807 C352.75702282 328.38176984 347.8830026 328.30937226 343.00761414 328.2612915 C341.35093433 328.24123798 339.69432475 328.21398777 338.03788757 328.17926025 C335.64969 328.13046295 333.2624321 328.10798743 330.87382507 328.09039307 C330.13921051 328.06974792 329.40459595 328.04910278 328.64772034 328.02783203 C322.09159457 328.02500347 318.50825993 330.35747172 314.25663757 335.16851807 Z " fill="#000000" transform="translate(62.36836242675781,-0.48101806640625)"/>
<path d="M0 0 C9.95279233 7.5283942 16.12426357 17.14023703 18.40625 29.515625 C20.00964714 42.25372449 17.01464818 53.25842792 9.6875 63.75 C8.965625 64.801875 8.24375 65.85375 7.5 66.9375 C3.41419554 71.02330446 -1.35898915 73.81779918 -6.3125 76.75 C-4.96581316 80.24338566 -3.43863366 83.62169848 -1.84985352 87.01074219 C8.86896705 110.38161453 10.78903156 137.43506949 1.93994141 161.80908203 C-5.30376547 180.94331818 -17.89820551 194.65602316 -32.3125 208.75 C-38.37071936 203.73866841 -44.01278294 198.33594983 -49.60009766 192.8125 C-50.64940098 191.7796576 -51.70402541 190.75219044 -52.76416016 189.73046875 C-70.79609948 172.3443323 -82.83429184 149.6742185 -83.5859375 124.296875 C-83.69058195 115.73150976 -83.78427721 107.20972753 -82.3125 98.75 C-83.18092529 98.91008545 -84.04935059 99.0701709 -84.9440918 99.23510742 C-110.22976744 103.10025854 -136.51382574 98.0619303 -157.52832031 83.1809082 C-165.43802081 76.97588453 -172.39200038 69.89486404 -179.4375 62.75 C-180.69223581 61.48520814 -181.94744101 60.22088176 -183.203125 58.95703125 C-186.24501309 55.89335203 -189.28050885 52.82347282 -192.3125 49.75 C-178.42427722 33.31575423 -163.76207072 21.02504155 -143.3125 13.75 C-142.6824707 13.52554199 -142.05244141 13.30108398 -141.40332031 13.06982422 C-116.96173907 4.86596529 -90.09926668 8.91635498 -67.3125 19.75 C-66.93738281 19.09773438 -66.56226563 18.44546875 -66.17578125 17.7734375 C-59.22046959 5.89509668 -51.24275501 -2.5680323 -37.71484375 -6.58984375 C-24.30123597 -9.19248406 -11.55206774 -7.57996037 0 0 Z M-37.1875 29.4375 C-38.99827293 33.15964436 -38.93840893 36.69917364 -38.3125 40.75 C-35.94440613 45.66834882 -33.43950886 47.90427681 -28.3125 49.75 C-24.32180069 50.33197698 -22.68848975 49.95642575 -19.125 48 C-15.26791672 44.91433338 -13.68709121 43.19485183 -12.4375 38.375 C-12.25755474 33.15658743 -13.95462963 30.32003761 -17.3125 26.4375 C-24.24318919 20.58973099 -31.33129338 24.16691404 -37.1875 29.4375 Z M-146.3125 49.75 C-143.46683284 56.77956699 -135.40528749 60.3943604 -128.875 63.5 C-127.03110014 64.27489828 -125.17695866 65.02596413 -123.3125 65.75 C-122.12333984 66.23146484 -122.12333984 66.23146484 -120.91015625 66.72265625 C-104.77400016 72.20334118 -86.39085656 69.32026242 -71.4375 62 C-70.05576472 61.26248213 -68.67776926 60.51757074 -67.3125 59.75 C-68.81532364 55.47422436 -71.94757239 53.61564521 -75.625 51.3125 C-76.55300415 50.7237207 -76.55300415 50.7237207 -77.49975586 50.12304688 C-98.83919802 37.00442626 -124.86512987 36.93088222 -146.3125 49.75 Z M-43.3125 83.75 C-52.22522815 101.89273789 -55.76994633 119.44714133 -49.71484375 139.20703125 C-46.25547501 147.94699629 -41.45741573 155.64327137 -35.3125 162.75 C-32.05189615 162.04345945 -32.05189615 162.04345945 -30.77734375 158.90625 C-30.27332031 157.6996875 -29.76929688 156.493125 -29.25 155.25 C-28.49009766 153.47109375 -28.49009766 153.47109375 -27.71484375 151.65625 C-21.53325431 135.40666751 -22.66601935 116.45864952 -29.66796875 100.69921875 C-32.79419224 94.63954159 -36.57941233 88.69046522 -41.3125 83.75 C-41.9725 83.75 -42.6325 83.75 -43.3125 83.75 Z " fill="#000000" transform="translate(291.3125,214.25)"/>
</svg>
