<?xml version="1.0" standalone="no"?>
<!DOCTYPE svg PUBLIC "-//W3C//DTD SVG 20010904//EN"
 "http://www.w3.org/TR/2001/REC-SVG-20010904/DTD/svg10.dtd">
<svg version="1.0" xmlns="http://www.w3.org/2000/svg"
 width="816.000000pt" height="1056.000000pt" viewBox="0 0 816.000000 1056.000000"
 preserveAspectRatio="xMidYMid meet">

<g transform="translate(0.000000,1056.000000) scale(0.100000,-0.100000)"
fill="#ffffff" stroke="none">
<path d="M2938 7888 l-1218 -702 0 -775 -1 -776 -61 -70 c-465 -536 -710
-1045 -710 -1479 0 -258 75 -456 239 -627 183 -191 433 -304 788 -355 145 -21
505 -24 670 -6 223 25 358 51 382 74 31 29 38 70 18 108 -27 53 -47 56 -212
32 -818 -120 -1398 26 -1610 406 -64 114 -86 206 -87 362 -1 217 42 378 174
645 82 169 207 367 331 525 l74 95 5 -413 5 -413 480 -274 480 -273 3 1144 2
1144 83 61 c122 90 385 265 527 351 124 75 358 208 366 208 2 0 4 -60 4 -132
l0 -133 479 -272 c264 -150 482 -273 485 -273 3 0 6 280 6 623 l0 623 143 47
c810 263 1494 314 1969 147 267 -94 439 -256 515 -485 25 -74 27 -93 27 -240
-1 -147 -3 -169 -32 -278 -18 -65 -32 -127 -32 -138 0 -30 53 -79 85 -79 39 0
81 25 94 57 25 61 61 229 72 334 21 204 -19 410 -114 579 -49 86 -192 237
-278 293 -269 174 -585 245 -1046 234 -395 -9 -750 -71 -1213 -213 -98 -29
-181 -54 -184 -54 -3 0 -6 179 -6 398 l0 398 -227 131 c-126 73 -235 134 -243
137 -9 3 -536 -295 -1232 -696z m732 -750 l0 -43 -112 -60 c-243 -130 -536
-310 -760 -467 -54 -37 -100 -68 -103 -68 -3 0 -5 26 -5 59 l0 58 488 281
c268 155 488 282 490 282 1 0 2 -19 2 -42z"/>
<path d="M5458 5674 l-3 -1226 -390 -225 c-214 -124 -398 -228 -407 -230 -17
-5 -18 35 -18 749 l0 753 -478 273 c-263 149 -481 272 -485 272 -4 0 -6 -592
-5 -1317 l3 -1316 235 -134 c129 -73 238 -133 243 -133 5 0 114 61 242 135
129 74 237 135 240 135 3 0 5 -209 5 -465 0 -256 3 -465 7 -465 3 0 226 126
495 281 l488 281 0 655 c0 520 3 654 13 650 6 -3 79 -44 162 -91 134 -76 151
-84 170 -72 11 7 120 70 243 140 l222 128 -2 945 -3 946 -470 269 c-258 148
-478 273 -487 279 -17 9 -18 -53 -20 -1217z"/>
<path d="M6888 6127 c-229 -65 -292 -370 -107 -517 62 -49 108 -64 189 -64
258 0 391 312 212 497 -76 79 -193 112 -294 84z m152 -206 c72 -72 37 -177
-63 -188 -43 -5 -49 -3 -82 30 -29 29 -35 42 -35 77 0 34 6 48 34 76 46 46
104 48 146 5z"/>
</g>
</svg>
