<?xml version="1.0" encoding="UTF-8"?>
<svg version="1.1" xmlns="http://www.w3.org/2000/svg" width="1333" height="1333">
<path d="M0 0 C2.3581543 1.04711914 2.3581543 1.04711914 4.82421875 2.53515625 C5.75669434 3.08937256 6.68916992 3.64358887 7.64990234 4.21459961 C8.65230957 4.82440674 9.6547168 5.43421387 10.6875 6.0625 C12.86018566 7.35759561 15.03338004 8.65183809 17.20703125 9.9453125 C18.32932129 10.61723633 19.45161133 11.28916016 20.60791016 11.98144531 C25.99827402 15.18912693 31.43639014 18.31255974 36.875 21.4375 C39.0417803 22.68600073 41.2084461 23.93470019 43.375 25.18359375 C44.99921875 26.11921143 44.99921875 26.11921143 46.65625 27.07373047 C51.26777425 29.73034016 55.8785214 32.38829557 60.48876953 35.04711914 C62.66664882 36.30312898 64.84469506 37.55884939 67.02294922 38.81420898 C68.96601366 39.93470218 70.90070385 41.06992188 72.82424045 42.22361654 C75.93319027 44.04907011 75.93319027 44.04907011 79.15486455 45.27945858 C82.67877943 46.84722138 85.21121717 48.31941281 88 51 C89.79974989 56.54570098 89.57253787 61.93077103 89.4430542 67.7106781 C89.44828867 69.44090912 89.45879863 71.17113086 89.47412419 72.90130192 C89.50095527 77.65256446 89.45297559 82.40058037 89.39278746 87.15142906 C89.34097076 92.275415 89.3585018 97.39921749 89.36761475 102.52339172 C89.37390753 111.40003805 89.33625522 120.27562605 89.26876068 129.15200615 C89.17123985 141.9855742 89.13998406 154.81863046 89.12490478 167.65252889 C89.09864032 188.47429051 89.01877937 209.29548804 88.90527344 230.11694336 C88.79512707 250.34315162 88.71018531 270.56920668 88.65917969 290.7956543 C88.65445066 292.66574193 88.65445066 292.66574193 88.64962611 294.57360911 C88.63396567 300.82805548 88.61880117 307.08250295 88.60388327 313.33695114 C88.47947985 365.22502397 88.2681201 417.11248447 88 469 C84.06804528 467.7282356 80.63344163 466.38267032 77.078125 464.26953125 C76.14887207 463.72176025 75.21961914 463.17398926 74.26220703 462.60961914 C73.26817871 462.01656982 72.27415039 461.42352051 71.25 460.8125 C69.08632451 459.53580222 66.92224834 458.25978329 64.7578125 456.984375 C63.64180664 456.32501953 62.52580078 455.66566406 61.37597656 454.98632812 C55.9787367 451.81074644 50.55236 448.6862344 45.125 445.5625 C42.94008624 444.30341652 40.75519051 443.04430177 38.5703125 441.78515625 C37.48524414 441.16012207 36.40017578 440.53508789 35.28222656 439.89111328 C29.85340058 436.76319852 24.42680719 433.63141552 19 430.5 C16.83334417 429.24998121 14.6666775 427.99998122 12.5 426.75 C-26.50000001 404.25 -26.50000001 404.25 -29.7512207 402.37426758 C-31.91378583 401.1266526 -34.07638339 399.87909384 -36.23901367 398.6315918 C-41.71870371 395.47056551 -47.19779358 392.30850691 -52.67578125 389.14453125 C-53.78759766 388.50257813 -54.89941406 387.860625 -56.04492188 387.19921875 C-58.10764131 386.00819246 -60.17016747 384.81683131 -62.23242188 383.625 C-72.46885408 377.71544723 -82.73715239 371.86448435 -93 366 C-93 331.68 -93 297.36 -93 262 C-109.94597293 271.6834131 -126.88342105 281.37638848 -143.78222656 291.14111328 C-149.18670649 294.26324607 -154.59350107 297.38136526 -160 300.5 C-161.07121094 301.11810547 -162.14242188 301.73621094 -163.24609375 302.37304688 C-168.68646075 305.51222374 -174.12762955 308.64999629 -179.5703125 311.78515625 C-190.02206316 317.80747396 -200.46290267 323.84685089 -210.875 329.9375 C-221.76475338 336.30455491 -232.70912023 342.57329116 -243.66796875 348.8203125 C-253.11610788 354.2063055 -262.55743155 359.6042466 -272 365 C-272.33 525.71 -272.66 686.42 -273 852 C-285.38416932 845.24499855 -285.38416932 845.24499855 -290.28515625 842.44140625 C-291.37908691 841.81613037 -292.47301758 841.19085449 -293.60009766 840.54663086 C-294.74269043 839.89186768 -295.8852832 839.23710449 -297.0625 838.5625 C-298.2921337 837.8587682 -299.52178909 837.15507432 -300.75146484 836.45141602 C-312.11088594 829.94804244 -323.44893155 823.40766361 -334.78222656 816.85888672 C-340.18670645 813.73675395 -345.59347412 810.61858796 -351 807.5 C-353.1666775 806.25001878 -355.33334417 805.00001879 -357.5 803.75 C-358.5725 803.13125 -359.645 802.5125 -360.75 801.875 C-372.66666667 795 -384.58333333 788.125 -396.5 781.25 C-397.57362793 780.63060547 -398.64725586 780.01121094 -399.75341797 779.37304688 C-401.90871311 778.1295949 -404.06398673 776.88610564 -406.21923828 775.64257812 C-411.22337674 772.75537125 -416.2277052 769.8684957 -421.23284912 766.98303223 C-422.98341241 765.97380896 -424.73390411 764.96446164 -426.484375 763.95507812 C-428.66392165 762.6983234 -430.84359832 761.44179414 -433.0234375 760.18554688 C-434.96789913 759.06422396 -436.90267928 757.92584144 -438.82455164 756.76622826 C-441.92390426 754.94071378 -441.92390426 754.94071378 -445.15178913 753.81207556 C-448.81053697 752.26645638 -451.20960373 750.8489796 -454 748 C-455.85791131 741.60298478 -455.62637795 735.30182028 -455.53053284 728.6856842 C-455.54507603 726.67239869 -455.56484751 724.65914529 -455.58939785 722.64595693 C-455.64149922 717.11244486 -455.61858505 711.58138621 -455.58335507 706.04783404 C-455.55829535 700.08096355 -455.6021798 694.11454641 -455.63719177 688.14778137 C-455.69114947 677.13409143 -455.69024459 666.12112507 -455.66068357 655.10737991 C-455.63348761 644.93234781 -455.62817417 634.75760406 -455.64472771 624.58254814 C-455.64578945 623.90765309 -455.6468512 623.23275804 -455.64794512 622.53741162 C-455.65226295 619.7977903 -455.65665494 617.05816912 -455.661176 614.31854813 C-455.70309916 588.61681225 -455.67420913 562.91557507 -455.61424911 537.21389848 C-455.56143954 514.38065099 -455.57360935 491.54829326 -455.63989258 468.71508789 C-455.71415797 443.06195631 -455.74611314 417.40933054 -455.71119446 391.75609773 C-455.70759194 389.02115448 -455.70410199 386.2862111 -455.70066643 383.55126762 C-455.69978492 382.87785508 -455.69890342 382.20444253 -455.6979952 381.51062354 C-455.68545574 371.34276016 -455.70540388 361.17529162 -455.74127388 351.00749397 C-455.78190922 339.44480542 -455.77510508 327.88315737 -455.70967627 316.32056052 C-455.6774691 310.41926512 -455.66618399 304.5198924 -455.7111702 298.61863708 C-455.75176346 293.21702563 -455.73245838 287.81908054 -455.66513299 282.41776662 C-455.65129208 280.46296299 -455.65943289 278.50785608 -455.69162674 276.55326856 C-455.87347043 264.62027129 -455.87347043 264.62027129 -454 260 C-450.07081696 255.99387132 -446.18385741 254.16768691 -441 252 C-438.97009456 250.84866474 -436.95300768 249.67404477 -434.95703125 248.46484375 C-432.90995526 247.28714651 -430.86174178 246.11142462 -428.8125 244.9375 C-427.10957218 243.95848887 -425.4066462 242.97947453 -423.7038269 242.00027466 C-421.95604539 240.99552701 -420.20779404 239.99160086 -418.45947266 238.98779297 C-412.96860763 235.8327737 -407.48452655 232.66602037 -402 229.5 C-399.83336859 228.24993888 -397.66670186 226.999939 -395.5 225.75 C-394.4275 225.13125 -393.355 224.5125 -392.25 223.875 C-226.5 128.25 -226.5 128.25 -223.24951172 126.37475586 C-221.08442929 125.12564482 -218.91939018 123.87645871 -216.75439453 122.62719727 C-211.31384294 119.48797691 -205.87252784 116.35009437 -200.4296875 113.21484375 C-189.97793801 107.19252671 -179.53700452 101.15330663 -169.125 95.0625 C-159.85500223 89.64078822 -150.54168248 84.29795085 -141.21154785 78.98077393 C-132.0871716 73.77954871 -122.99867226 68.51972122 -113.93310547 63.21655273 C-103.40915375 57.06233258 -92.84619863 50.97630004 -82.28222656 44.89111328 C-75.77270411 41.14053601 -69.2660522 37.38498011 -62.75927734 33.62963867 C-57.29465337 30.47614838 -51.82852098 27.3253296 -46.359375 24.1796875 C-45.26455811 23.5494165 -44.16974121 22.91914551 -43.04174805 22.26977539 C-40.86677871 21.01783316 -38.69117138 19.76699857 -36.51489258 18.51733398 C-31.19395649 15.45376472 -25.90219009 12.35203512 -20.65234375 9.16796875 C-19.64655273 8.56098145 -18.64076172 7.95399414 -17.60449219 7.32861328 C-15.71000737 6.18158422 -13.82096727 5.02549597 -11.93847656 3.85888672 C-11.09639648 3.34986816 -10.25431641 2.84084961 -9.38671875 2.31640625 C-8.65670654 1.86724854 -7.92669434 1.41809082 -7.17456055 0.95532227 C-4.52510994 -0.20862746 -2.87133132 -0.34449319 0 0 Z " fill="#ffffff" transform="translate(684,102)"/>
<path d="M0 0 C7.90889133 3.95444567 15.54580824 7.94394641 23.125 12.4375 C25.23402286 13.67768236 27.34341061 14.91724438 29.453125 16.15625 C31.07057617 17.10757812 31.07057617 17.10757812 32.72070312 18.078125 C38.08994733 21.22484108 43.48208191 24.33158619 48.875 27.4375 C50.49365967 28.37033813 50.49365967 28.37033813 52.14501953 29.32202148 C54.33582951 30.58449731 56.5267476 31.84678556 58.71777344 33.10888672 C64.14659942 36.23680148 69.57319281 39.36858448 75 42.5 C77.16665583 43.75001879 79.3333225 45.00001878 81.5 46.25 C94.5 53.75 107.5 61.25 120.5 68.75 C121.57338623 69.3692334 122.64677246 69.9884668 123.75268555 70.62646484 C125.91049803 71.87141282 128.06821353 73.1165289 130.22583008 74.36181641 C135.77716592 77.56552651 141.33036541 80.7659363 146.88671875 83.9609375 C148.02560547 84.61642578 149.16449219 85.27191406 150.33789062 85.94726562 C152.47787488 87.1788484 154.61844226 88.40941886 156.75976562 89.63867188 C158.72036804 90.76758088 160.66298102 91.92849305 162.58337879 93.12451553 C165.96225196 95.13015225 165.96225196 95.13015225 169.81831646 96.16854477 C174.53612108 97.78767111 178.17151549 99.78470745 181 104 C183.89828188 113.62454341 183.14733414 124.39482958 183.06348336 134.3595264 C183.04390951 138.60969056 183.11058438 142.85865239 183.16572571 147.10838318 C183.2593287 155.42791213 183.27100918 163.74561064 183.25171123 172.06556997 C183.23695733 178.83032156 183.24893522 185.59452135 183.27980614 192.35921478 C183.28412569 193.32284305 183.28844525 194.28647131 183.2928957 195.27930044 C183.30169793 197.23708522 183.31052109 199.19486991 183.31936493 201.1526545 C183.3983191 219.50569465 183.37994514 237.85769429 183.33187064 256.21077594 C183.2909358 272.9865451 183.37135867 289.75915171 183.50939415 306.53432062 C183.65015783 323.77331238 183.70918124 341.01081336 183.68000191 358.25038123 C183.6650506 367.92369566 183.68205728 377.59436928 183.78454018 387.26721954 C183.87089308 395.50402243 183.87967247 403.73652029 183.78972826 411.97335801 C183.74594886 416.1741618 183.7368433 420.36713893 183.82439423 424.56743431 C184.30069934 449.06105161 184.30069934 449.06105161 178.82252479 455.59852886 C173.6008507 459.9159395 167.88726176 462.62373651 161.57814062 464.99354506 C158.14699913 466.33299461 155.20344804 468.0829599 152.078125 470.0234375 C150.13609173 471.14179806 148.19339352 472.25900484 146.25 473.375 C145.18418701 473.98875488 144.11837402 474.60250977 143.02026367 475.23486328 C138.53307059 477.81876681 134.0441695 480.39969504 129.55517578 482.98046875 C127.26220158 484.29906654 124.96955471 485.61823373 122.67724609 486.93798828 C120.46096008 488.21385631 118.24385723 489.48830664 116.02587891 490.76123047 C111.3704719 493.44061688 106.73495331 496.13591463 102.17578125 498.9765625 C101.12813599 499.6264917 101.12813599 499.6264917 100.05932617 500.28955078 C98.28474789 501.40003407 96.52072175 502.52733363 94.7578125 503.65625 C92 505 92 505 90.15649414 504.75952148 C87.50106566 503.82427434 85.19178122 502.57455421 82.73828125 501.19140625 C81.19587769 500.32539795 81.19587769 500.32539795 79.62231445 499.44189453 C78.53007568 498.82169434 77.43783691 498.20149414 76.3125 497.5625 C75.18996826 496.92940918 74.06743652 496.29631836 72.91088867 495.64404297 C65.90293937 491.68034564 58.9233937 487.67080237 52.00708008 483.54907227 C47.61214041 480.9304679 43.18062094 478.38012176 38.73706055 475.84521484 C38.08830711 475.4748259 37.43955368 475.10443695 36.77114105 474.7228241 C35.18090325 473.81496633 33.59047114 472.90744892 32 472 C32.0031424 473.23651873 32.00628481 474.47303745 32.00952244 475.74702644 C32.08210607 505.09795732 32.10831719 534.44854966 32.07740569 563.79953516 C32.07364176 567.4119294 32.07026925 571.02432391 32.06713867 574.63671875 C32.06650885 575.35588305 32.06587903 576.07504734 32.06523012 576.8160045 C32.05596486 588.46150573 32.07841015 600.10674099 32.11256976 611.75218655 C32.14691379 623.70107984 32.14719143 635.64962354 32.11582941 647.59852684 C32.09919063 654.31042967 32.09831133 661.02156887 32.13676643 667.73340225 C32.17140822 674.04896744 32.16408826 680.36308411 32.12437057 686.67860603 C32.11721825 688.99817329 32.12549063 691.31784645 32.15022469 693.63729286 C32.18168924 696.80299902 32.15792799 699.96365237 32.12025452 703.12918091 C32.14257914 704.0494224 32.16490377 704.96966389 32.18790489 705.91779149 C32.08903523 709.8510115 31.95667454 712.08887614 29.02879226 714.87735152 C26.74245712 716.42152307 24.45331772 717.74189082 22 719 C20.99453125 719.59651367 19.9890625 720.19302734 18.953125 720.80761719 C17.61507812 721.5447998 17.61507812 721.5447998 16.25 722.296875 C15.23881104 722.85753662 14.22762207 723.41819824 13.18579102 723.99584961 C12.13447998 724.57471924 11.08316895 725.15358887 10 725.75 C2.81107379 729.74175824 -4.36636563 733.73998644 -11.4375 737.9375 C-18.40769835 742.07317969 -25.41501012 746.14121067 -32.4375 750.1875 C-33.54472412 750.82550537 -34.65194824 751.46351074 -35.79272461 752.12084961 C-38.06337068 753.42889477 -40.33412358 754.73675448 -42.60498047 756.04443359 C-48.0716998 759.19332054 -53.53574887 762.34683264 -59 765.5 C-61.16665311 766.7500235 -63.33331979 768.00002347 -65.5 769.25 C-67.10875 770.178125 -67.10875 770.178125 -68.75 771.125 C-78.49999999 776.75 -78.49999999 776.75 -81.75048828 778.62524414 C-83.91557071 779.87435518 -86.08060982 781.12354129 -88.24560547 782.37280273 C-93.68615706 785.51202309 -99.12747216 788.64990563 -104.5703125 791.78515625 C-105.65497803 792.410271 -106.73964355 793.03538574 -107.85717773 793.67944336 C-110.01774193 794.92445133 -112.1787054 796.16876668 -114.34008789 797.41235352 C-119.8660506 800.59634255 -125.3754021 803.80543916 -130.86328125 807.0546875 C-131.96720215 807.70622803 -133.07112305 808.35776855 -134.20849609 809.02905273 C-136.3175927 810.27559804 -138.42354193 811.52748825 -140.52587891 812.78540039 C-141.4647998 813.3396167 -142.4037207 813.89383301 -143.37109375 814.46484375 C-144.19536865 814.955896 -145.01964355 815.44694824 -145.86889648 815.95288086 C-148 817 -148 817 -151 817 C-151 760.24 -151 703.48 -151 645 C-159.58 649.95 -168.16 654.9 -177 660 C-181.29 662.475 -185.58 664.95 -190 667.5 C-192.124375 668.72589844 -194.24875 669.95179688 -196.4375 671.21484375 C-200.38542992 673.49263284 -204.33428819 675.76879443 -208.28442383 678.04275513 C-210.05045522 679.05947198 -211.81627431 680.07655658 -213.58203125 681.09375 C-215.78734155 682.36400873 -217.99304216 683.63359018 -220.19921875 684.90234375 C-221.20597656 685.48242188 -222.21273437 686.0625 -223.25 686.66015625 C-224.21421875 687.2133252 -225.1784375 687.76649414 -226.171875 688.33642578 C-228.07750849 689.4573673 -229.96307099 690.61305987 -231.828125 691.80029297 C-232.70984375 692.35990723 -233.5915625 692.91952148 -234.5 693.49609375 C-235.2734375 694.00197021 -236.046875 694.50784668 -236.84375 695.02905273 C-239 696 -239 696 -240.95239258 695.83203125 C-243.5101729 694.79269474 -245.85561151 693.5478368 -248.26171875 692.19140625 C-249.289021 691.61463135 -250.31632324 691.03785645 -251.37475586 690.44360352 C-252.46796143 689.82283936 -253.56116699 689.2020752 -254.6875 688.5625 C-255.81873291 687.9243335 -256.94996582 687.28616699 -258.11547852 686.62866211 C-264.91576756 682.78169675 -271.68374882 678.88485513 -278.40185547 674.89624023 C-285.84415209 670.47976624 -293.35214117 666.17770316 -300.86303711 661.87915039 C-302.94545605 660.68274131 -305.00100272 659.4384411 -307.02824783 658.15075302 C-309.95566856 656.41062399 -312.70037981 655.47571706 -315.98296738 654.59401321 C-322.4105219 652.4751803 -327.25374872 649.78232186 -331 644 C-335.42639894 630.91617634 -333.56817287 615.00853674 -333.32131243 601.43477654 C-333.23474955 595.46766153 -333.26418335 589.50096795 -333.27935791 583.53340149 C-333.28983363 573.20154008 -333.22791511 562.8720292 -333.11460114 552.54082489 C-332.99611315 541.71003963 -332.91925424 530.88026443 -332.89754486 520.04883575 C-332.89617007 519.37450975 -332.89479528 518.70018374 -332.89337882 518.00542361 C-332.88661182 514.58063016 -332.88058427 511.15583582 -332.8748413 507.73104051 C-332.83287219 483.49530036 -332.69823836 459.26087743 -332.50878906 435.02587891 C-332.32499598 411.48721301 -332.1833764 387.94890802 -332.09863281 364.40966797 C-332.09468703 363.3206276 -332.09468703 363.3206276 -332.09066153 362.20958641 C-332.06429032 354.91828874 -332.03877416 347.62698829 -332.01388434 340.33568543 C-331.96316493 325.48347565 -331.90673989 310.63128935 -331.84686279 295.77911377 C-331.84411699 295.09628814 -331.84137119 294.41346252 -331.83854219 293.70994521 C-331.65463871 248.13940749 -331.33733052 202.56963255 -331 157 C-327.78012146 157.74680701 -325.30288734 158.80683014 -322.421875 160.44921875 C-321.07089722 161.21552612 -321.07089722 161.21552612 -319.69262695 161.99731445 C-318.72156006 162.55507568 -317.75049316 163.11283691 -316.75 163.6875 C-315.2189563 164.55991333 -315.2189563 164.55991333 -313.65698242 165.44995117 C-305.51928262 170.09855383 -297.42357454 174.81873883 -289.33691406 179.55541992 C-281.58779266 184.0898648 -273.80091761 188.55559036 -266 193 C-256.27865901 198.53968899 -246.59104908 204.13375063 -236.93310547 209.78344727 C-226.40915375 215.93766742 -215.84619863 222.02369996 -205.28222656 228.10888672 C-202.01825673 229.98948106 -198.75505811 231.87140546 -195.4921875 233.75390625 C-194.47883681 234.33658722 -193.46548613 234.9192682 -192.42142785 235.51960617 C-190.2740569 236.76254928 -188.13291291 238.01638058 -186.00115573 239.28591627 C-180.46585339 242.55788063 -175.04819767 245.49181104 -169.14996529 248.05986118 C-152.23750914 255.79426106 -152.23750914 255.79426106 -148.52238226 262.77740741 C-146.17210959 270.74276448 -146.67660766 278.91799745 -146.95654297 287.13061523 C-146.96852105 289.86213807 -146.94115458 292.59294669 -146.91548157 295.32434082 C-146.88080548 301.18081741 -146.94024412 307.0300709 -147.0658226 312.88522148 C-147.24721299 321.34912605 -147.28326148 329.80889289 -147.28520311 338.27451528 C-147.29223998 352.010965 -147.41486837 365.74380826 -147.61132812 379.47875977 C-147.80178411 392.81145983 -147.93709029 406.14286347 -147.99902344 419.47680664 C-148.00286725 420.30026356 -148.00671107 421.12372049 -148.01067136 421.97213065 C-148.02961928 426.10365525 -148.0474913 430.23518367 -148.06482863 434.36671531 C-148.20978894 468.58010284 -148.54281403 502.78939155 -149 537 C-145.08109497 534.81287127 -141.16349326 532.62341772 -137.24609375 530.43359375 C-136.15373413 529.82398804 -135.06137451 529.21438232 -133.93591309 528.58630371 C-126.60141751 524.48446435 -119.31467964 520.30810779 -112.0625 516.0625 C-110.95640381 515.41539062 -109.85030762 514.76828125 -108.71069336 514.1015625 C-107.84581299 513.59367188 -106.98093262 513.08578125 -106.08984375 512.5625 C-99.78429581 508.8678669 -93.45705564 505.21147319 -87.125 501.5625 C-86.04484619 500.93996338 -84.96469238 500.31742676 -83.85180664 499.67602539 C-81.66203666 498.41423174 -79.47217645 497.15259466 -77.28222656 495.89111328 C-71.85340055 492.7631985 -66.42682751 489.63138034 -61 486.5 C-58.83984643 485.25390161 -56.67969017 484.00780786 -54.51953125 482.76171875 C-50.12040925 480.22384007 -45.72205679 477.68463417 -41.32421875 475.14453125 C-39.65649414 474.18160156 -39.65649414 474.18160156 -37.95507812 473.19921875 C-35.89235869 472.00819246 -33.82983253 470.81683131 -31.76757812 469.625 C-21.53114592 463.71544723 -11.26284761 457.86448435 -1 452 C-0.67 302.84 -0.34 153.68 0 0 Z " fill="#ffffff" transform="translate(922,414)"/>
</svg>

