<?xml version="1.0" encoding="UTF-8" standalone="no"?>
<svg
   xmlns:dc="http://purl.org/dc/elements/1.1/"
   xmlns:cc="http://creativecommons.org/ns#"
   xmlns:rdf="http://www.w3.org/1999/02/22-rdf-syntax-ns#"
   xmlns:svg="http://www.w3.org/2000/svg"
   xmlns="http://www.w3.org/2000/svg"
   viewBox="0 0 816 1056"
   height="1056"
   width="816"
   xml:space="preserve"
   id="svg2"
   version="1.1"><metadata
     id="metadata8"><rdf:RDF><cc:Work
         rdf:about=""><dc:format>image/svg+xml</dc:format><dc:type
           rdf:resource="http://purl.org/dc/dcmitype/StillImage" /></cc:Work></rdf:RDF></metadata><defs
     id="defs6"><clipPath
       id="clipPath18"
       clipPathUnits="userSpaceOnUse"><path
         id="path16"
         d="M 0,792 H 612 V 0 H 0 Z" /></clipPath><clipPath
       id="clipPath58"
       clipPathUnits="userSpaceOnUse"><path
         id="path56"
         d="M 0,792 H 612 V 0 H 0 Z" /></clipPath></defs><g
     transform="matrix(1.3333333,0,0,-1.3333333,0,1056)"
     id="g10"><g
       id="g12"><g
         clip-path="url(#clipPath18)"
         id="g14"><g
           transform="translate(173.2129,216.9219)"
           id="g20"><path
             id="path22"
             style="fill:#ffffff;fill-opacity:1;fill-rule:nonzero;stroke:none"
             d="m 0,0 c -28.762,-0.001 -53.082,5.257 -72.285,15.628 -14.585,7.877 -25.84,18.56 -33.453,31.754 -20.633,35.758 -11.561,84.182 25.545,136.352 33.75,47.452 87.648,93.959 151.766,130.955 49.301,28.447 100.731,48.999 148.731,59.435 23.393,5.086 45.44,7.666 65.529,7.666 21.673,0 40.981,-3 57.392,-8.917 22.06,-7.956 38.381,-20.891 48.51,-38.448 12.632,-21.89 14.173,-49.266 4.456,-79.168 -2.846,-8.753 -10.937,-14.631 -20.133,-14.632 -2.226,0 -4.431,0.351 -6.553,1.042 -5.372,1.746 -9.748,5.483 -12.316,10.522 -2.568,5.04 -3.019,10.778 -1.27,16.158 5.988,18.431 5.699,33.544 -0.863,44.915 -4.993,8.654 -13.806,15.307 -26.196,19.775 -11.739,4.233 -26.14,6.38 -42.8,6.38 -54.415,0 -126.685,-22.956 -193.323,-61.406 C 33.774,243.989 -15.385,201.791 -45.685,159.19 -72.238,121.858 -80.757,88.818 -69.059,68.544 c 3.633,-6.295 9.318,-11.563 16.898,-15.656 12.685,-6.85 30.826,-10.471 52.462,-10.471 13.872,0 29.017,1.471 45.012,4.373 1.252,0.227 2.523,0.341 3.785,0.341 10.239,0 18.999,-7.315 20.828,-17.393 C 72.01,18.25 64.36,7.209 52.874,5.124 34.132,1.724 16.342,0 0,0 Z" /></g><g
           transform="translate(173.2129,231.0947)"
           id="g24"><path
             id="path26"
             style="fill:#ffffff;fill-opacity:1;fill-rule:nonzero;stroke:none"
             d="m 0,0 c -26.205,-0.001 -48.41,4.669 -65.549,13.926 -12.242,6.611 -21.633,15.482 -27.912,26.366 -17.701,30.676 -8.887,73.667 24.817,121.055 32.595,45.826 84.907,90.892 147.301,126.893 48.048,27.724 98.07,47.732 144.658,57.862 46.146,10.033 85.947,9.777 115.102,-0.735 18.823,-6.788 32.632,-17.62 41.042,-32.198 10.569,-18.316 11.694,-41.728 3.253,-67.704 -1.195,-3.675 -5.144,-5.691 -8.82,-4.494 -3.677,1.195 -5.69,5.144 -4.495,8.821 7.284,22.414 6.589,41.383 -2.065,56.381 -6.712,11.634 -18.038,20.389 -33.663,26.024 C 278.151,352.215 178.483,329.678 85.654,276.114 24.965,241.096 -25.781,197.456 -57.235,153.232 -87.58,110.568 -96.138,72.943 -81.335,47.288 -76.371,38.686 -68.822,31.604 -58.896,26.244 -34.82,13.242 3.087,10.552 47.844,18.672 c 3.8,0.687 7.447,-1.834 8.137,-5.638 C 56.671,9.23 54.147,5.587 50.343,4.896 32.321,1.627 15.462,0 0,0" /></g><g
           transform="translate(348.2832,171.3721)"
           id="g28"><path
             id="path30"
             style="fill:#ffffff;fill-opacity:1;fill-rule:nonzero;stroke:none"
             d="m 0,0 c -2.449,0 -4.898,0.634 -7.093,1.902 -4.382,2.533 -7.08,7.21 -7.08,12.271 v 46.289 l -15.656,-9.014 c -2.189,-1.26 -4.63,-1.889 -7.071,-1.889 -2.422,0 -4.845,0.619 -7.02,1.86 l -36.283,20.686 c -4.422,2.522 -7.153,7.222 -7.153,12.313 v 197.929 c 0,5.05 2.687,9.718 7.054,12.256 2.2,1.277 4.659,1.918 7.119,1.918 2.422,0 4.844,-0.621 7.02,-1.861 L 7.02,252.935 c 4.422,-2.522 7.153,-7.222 7.153,-12.313 V 151.73 l 32.911,18.949 v 175.386 c 0,5.05 2.687,9.718 7.053,12.255 2.2,1.278 4.66,1.918 7.12,1.918 2.422,0 4.844,-0.62 7.02,-1.861 l 73.725,-42.034 c 4.422,-2.521 7.152,-7.221 7.152,-12.312 V 162.696 c 0,-5.069 -2.707,-9.753 -7.1,-12.283 l -36.863,-21.224 c -2.188,-1.259 -4.63,-1.889 -7.072,-1.889 -2.422,0 -4.843,0.619 -7.018,1.859 l -3.204,1.825 v -74.36 c 0,-5.069 -2.708,-9.754 -7.101,-12.283 L 31.466,15.94 7.074,1.892 C 4.885,0.63 2.442,0 0,0" /></g><g
           transform="translate(446.4025,496.4199)"
           id="g32"><path
             id="path34"
             style="fill:#ffffff;fill-opacity:1;fill-rule:nonzero;stroke:none"
             d="m 0,0 -36.862,21.017 v -183.58 l -61.257,-35.269 v 113.406 l -36.9,21.039 -36.283,20.686 V -240.63 l 36.283,-20.687 36.9,21.245 v -42.283 -28.52 l 24.394,14.051 49.331,28.4 v 70.803 27.951 L 0,-183.575 l 36.862,21.223 v 141.335 z" /></g><g
           transform="translate(201.918,283.3359)"
           id="g36"><path
             id="path38"
             style="fill:#ffffff;fill-opacity:1;fill-rule:nonzero;stroke:none"
             d="m 0,0 c -2.422,0 -4.844,0.619 -7.02,1.86 l -73.181,41.719 c -4.424,2.522 -7.155,7.222 -7.155,12.314 v 199.648 c 0,5.069 2.708,9.753 7.101,12.282 l 183.368,105.579 c 2.19,1.26 4.631,1.89 7.073,1.89 2.452,0 4.904,-0.635 7.099,-1.906 l 36.181,-20.942 c 4.377,-2.533 7.072,-7.208 7.072,-12.266 V 171.169 c 0,-5.05 -2.686,-9.718 -7.053,-12.255 -2.2,-1.279 -4.66,-1.918 -7.12,-1.918 -2.422,0 -4.844,0.62 -7.02,1.86 l -73.182,41.726 c -4.423,2.521 -7.154,7.221 -7.154,12.312 v 17.79 L 14.173,204.868 V 14.173 C 14.173,9.123 11.486,4.454 7.12,1.918 4.919,0.64 2.46,0 0,0" /></g><g
           transform="translate(275.1006,496.2301)"
           id="g40"><path
             id="path42"
             style="fill:#ffffff;fill-opacity:1;fill-rule:nonzero;stroke:none"
             d="M 0,0 36.282,-20.686 73.183,-41.725 V 127.284 L 37.003,148.225 -146.365,42.647 v -199.648 l 36.32,-20.703 36.862,-21.017 V 0.168 L 0,42.305 Z" /></g><g
           transform="translate(522.6113,401.4878)"
           id="g44"><path
             id="path46"
             style="fill:#ffffff;fill-opacity:1;fill-rule:nonzero;stroke:none"
             d="m 0,0 c -20.139,0 -36.522,16.384 -36.522,36.523 0,20.14 16.383,36.524 36.522,36.524 20.14,0 36.523,-16.384 36.523,-36.524 C 36.523,16.384 20.14,0 0,0" /></g><g
           transform="translate(522.6113,446.3613)"
           id="g48"><path
             id="path50"
             style="fill:#ffffff;fill-opacity:1;fill-rule:nonzero;stroke:none"
             d="m 0,0 c -4.604,0 -8.35,-3.746 -8.35,-8.35 0,-4.605 3.746,-8.35 8.35,-8.35 4.604,0 8.351,3.745 8.351,8.35 C 8.351,-3.746 4.604,0 0,0 m 0,-30.7 c -12.323,0 -22.35,10.026 -22.35,22.35 C -22.35,3.974 -12.323,14 0,14 12.324,14 22.351,3.974 22.351,-8.35 22.351,-20.674 12.324,-30.7 0,-30.7" /></g></g></g><g
       id="g52"><g
         clip-path="url(#clipPath58)"
         id="g54"><g
           transform="translate(549.2679,478.723)"
           id="g60"><path
             id="path62"
             style="fill:none;stroke:#232323;stroke-width:14;stroke-linecap:round;stroke-linejoin:round;stroke-miterlimit:10;stroke-dasharray:none;stroke-opacity:1"
             d="m 0,0 c 7.635,23.498 7.246,44.877 -2.659,62.043 -7.732,13.4 -20.589,23.065 -37.353,29.11 -56.091,20.226 -155.922,-0.077 -253.887,-56.604 -127.245,-73.421 -203.157,-180.151 -169.554,-238.387 5.736,-9.942 14.294,-17.828 25.175,-23.705 26.057,-14.073 65.438,-16.626 111.316,-8.301" /></g><g
           transform="translate(446.4025,496.4199)"
           id="g64"><path
             id="path66"
             style="fill:#332d2b;fill-opacity:1;fill-rule:nonzero;stroke:none"
             d="m 0,0 -36.862,21.017 v -183.58 l -61.257,-35.269 v 113.406 l -36.9,21.039 -36.283,20.686 V -240.63 l 36.283,-20.687 36.9,21.245 v -42.283 -28.52 l 24.394,14.051 49.331,28.4 v 70.803 27.951 L 0,-183.575 l 36.862,21.223 v 141.335 z" /></g><g
           transform="translate(275.1006,496.2301)"
           id="g68"><path
             id="path70"
             style="fill:#332d2b;fill-opacity:1;fill-rule:nonzero;stroke:none"
             d="M 0,0 36.282,-20.686 73.183,-41.725 V 127.284 L 37.003,148.225 -146.365,42.647 v -199.648 l 36.32,-20.703 36.862,-21.017 V 0.168 L 0,42.305 Z" /></g><g
           transform="translate(537.9615,438.0113)"
           id="g72"><path
             id="path74"
             style="fill:none;stroke:#232323;stroke-width:14;stroke-linecap:round;stroke-linejoin:round;stroke-miterlimit:10;stroke-dasharray:none;stroke-opacity:1"
             d="m 0,0 c 0,-8.478 -6.872,-15.35 -15.35,-15.35 -8.478,0 -15.35,6.872 -15.35,15.35 0,8.478 6.872,15.35 15.35,15.35 C -6.872,15.35 0,8.478 0,0 Z" /></g></g></g></g></svg>